<svg width="645" height="543" viewBox="0 0 645 543" fill="none" xmlns="http://www.w3.org/2000/svg">
<path d="M135.358 241.616C135.064 218.891 135.363 195.825 135.327 173.076L135.255 151.18C135.237 144.731 134.988 136.07 136.411 129.906C138.111 123.693 141.571 118.469 145.913 113.816C152.505 106.75 161.422 103.65 171.021 103.667C188.079 103.697 205.177 103.716 222.256 103.684L238.706 103.661C242.074 103.66 246.278 103.457 249.706 104.031C261.285 105.972 266.936 118.412 274.203 126.297C276.457 128.742 278.088 131.489 280.497 133.813L280.785 134.087C284.251 134.757 294.453 134.449 298.394 134.42L392.393 134.376C398.868 134.424 405.34 134.422 411.816 134.37C415.066 134.354 418.376 134.297 421.579 134.374C434.554 134.686 445.398 141.368 451.442 152.856C456.204 161.91 455.359 170.269 455.341 180.04L455.363 200.28C455.58 203.984 456.096 226.491 455.007 228.616C458.966 231.495 462.594 234.067 466.193 237.385C480.586 250.789 490.097 268.613 493.219 288.033C496.831 311.064 491.729 334.246 477.906 353.09C477.396 353.79 477.034 354.3 476.442 354.936C480.416 358.798 484.35 362.7 488.242 366.643C494.053 365.9 499.791 366.454 504.298 370.42C510.355 375.752 517.179 382.829 522.883 388.631C527.49 393.311 538.01 402.934 541.439 407.74C543.149 410.093 544.22 412.849 544.545 415.737C545.193 421.113 543.634 426.906 540.242 431.151C536.926 435.271 532.089 437.879 526.823 438.383C514.288 439.69 509.255 431.507 501.212 423.611C495.341 417.891 489.534 412.109 483.789 406.26C478.042 400.455 472.429 396.452 471.667 387.796C471.497 385.894 471.503 383.976 471.683 382.073C468.272 378.659 464.068 374.653 460.924 371.087C458.046 373.163 455.208 375.094 452.327 377.129C452.827 377.34 452.648 377.248 453.048 377.658C452.799 382.37 445.965 390.061 442.434 392.817C433.194 400.039 424.171 399.894 413.217 399.941L393.684 399.967L326.992 399.819L220.523 400.045L188.647 399.995C171.307 400.02 155.608 402.206 143.878 386.955C133.524 373.491 135.369 362.624 135.338 346.936L135.295 306.385L135.171 264.101C135.145 258.863 134.756 245.981 135.358 241.616Z" fill="#D6C9F8"/>
<path d="M452.326 377.129C423.698 393.87 391.741 395.133 362.461 378.959C320.246 355.639 304.474 299.924 329.033 258.198C340.884 237.617 360.571 222.72 383.597 216.911C403.539 211.8 422.234 213.22 441.373 221.224C445.999 223.16 450.698 226.062 455.007 228.617C458.965 231.495 462.594 234.068 466.193 237.386C480.586 250.79 490.097 268.613 493.218 288.033C496.831 311.064 491.729 334.247 477.906 353.091C477.396 353.79 477.034 354.301 476.441 354.937C480.416 358.798 484.35 362.701 488.242 366.644C494.053 365.901 499.791 366.455 504.298 370.42C510.354 375.753 517.179 382.83 522.883 388.632C527.49 393.312 538.009 402.934 541.439 407.741C543.149 410.093 544.22 412.849 544.544 415.738C545.193 421.114 543.634 426.906 540.242 431.152C536.926 435.272 532.088 437.88 526.823 438.384C514.288 439.691 509.255 431.508 501.212 423.612C495.341 417.892 489.534 412.109 483.789 406.26C478.041 400.456 472.429 396.452 471.667 387.797C471.497 385.895 471.503 383.977 471.683 382.074C468.272 378.66 464.067 374.654 460.924 371.088C458.046 373.164 455.208 375.095 452.326 377.129Z" fill="#585280"/>
<path d="M399.622 232.215C438.293 228.769 472.414 257.374 475.774 296.056C479.135 334.738 450.456 368.799 411.772 372.074C373.207 375.341 339.276 346.767 335.928 308.207C332.577 269.646 361.07 235.65 399.622 232.215Z" fill="#707AFF"/>
<path d="M400.667 244.342C432.558 241.497 460.708 265.064 463.52 296.96C466.329 328.856 442.734 356.982 410.837 359.76C378.99 362.532 350.916 338.979 348.11 307.13C345.304 275.283 368.827 247.183 400.667 244.342Z" fill="#E9EAEA"/>
<path d="M433.127 269.29C434.824 269.215 436.852 269.578 437.794 271.209C439.155 273.563 437.715 275.453 436.078 277.122C429.936 283.371 423.732 289.557 417.54 295.753L393.246 320.246C389.86 323.601 381.539 332.757 378.151 334.823C374.652 335.021 372.283 332.769 373.045 329.22C375.461 325.692 386.074 315.761 389.775 312.018L415.481 286.241C419.272 282.413 429.102 271.805 433.127 269.29Z" fill="#4C92CE"/>
<path d="M399.754 263.935C400.305 263.87 400.869 263.808 401.426 263.868C402.582 263.992 403.835 264.707 404.509 265.661C405.114 266.512 405.196 267.46 404.969 268.457C404.399 270.953 381.012 294.609 377.579 296.65C374.536 296.85 371.138 295.276 372.222 292.652C374.335 287.541 383.273 280.241 387.166 276.201C391.146 272.071 395.795 266.62 399.754 263.935Z" fill="#95BEE3"/>
<path d="M135.362 241.616C135.067 218.891 135.366 195.825 135.33 173.076L135.258 151.18C135.24 144.731 134.991 136.07 136.415 129.906C138.114 123.693 141.575 118.469 145.916 113.816C152.509 106.75 161.426 103.65 171.025 103.667C188.083 103.697 205.18 103.716 222.26 103.684L238.71 103.661C242.078 103.66 246.281 103.457 249.71 104.031C261.288 105.972 266.94 118.412 274.207 126.297C276.46 128.742 278.092 131.489 280.5 133.813L280.788 134.087C284.254 134.757 294.457 134.449 298.397 134.42L392.397 134.376C398.872 134.424 405.344 134.422 411.819 134.37C415.069 134.354 418.379 134.297 421.582 134.374C434.558 134.686 445.401 141.368 451.445 152.856C456.207 161.91 455.363 170.269 455.344 180.04L455.366 200.28C454.705 199.243 454.239 195.899 453.782 194.539C450.292 184.183 441.751 178.633 431.651 175.96C431.531 175.886 431.415 175.813 431.298 175.739C431.232 175.79 417.702 175.558 415.142 175.501C405.231 175.815 394.513 175.583 384.529 175.544L351.319 175.64C341.376 175.64 328.508 174.977 319.019 176.671C311.428 181.146 310.231 183.185 305.167 190.254C303.475 192.906 301.137 196.483 298.977 198.742C289.482 214.957 283.153 212.769 265.896 212.737L242.678 212.701L177.15 212.951C174.952 212.946 160.158 213.413 159.809 213.264L159.354 213.481C157.146 214.519 154.995 215.065 152.57 216.324C145.336 220.078 140.587 226.014 137.67 233.555C136.569 236.399 136.248 239.092 135.362 241.616Z" fill="#585280"/>
<path d="M159.806 213.265C159.113 199.835 159.955 185.704 159.632 172.221C159.446 164.483 165.839 154.814 173.941 154.287C183.198 153.686 193.151 154.022 202.492 154.035L258.525 154.039L360.795 154.036C378.287 154.038 395.785 153.973 413.271 154.079C420.253 154.121 426.086 156.568 429.286 163.052C431.367 167.264 431.474 171.147 431.295 175.739C431.229 175.79 417.699 175.559 415.138 175.502C405.227 175.816 394.510 175.583 384.526 175.545L351.316 175.640C341.373 175.641 328.504 174.978 319.015 176.672C311.424 181.146 310.227 183.185 305.164 190.255C303.472 192.907 301.134 196.483 298.974 198.743C289.478 214.958 283.149 212.769 265.892 212.737L242.675 212.701L177.147 212.951C174.949 212.946 160.155 213.414 159.806 213.265Z" fill="#E9EAEA"/>
<path d="M319.017 176.672C316.964 176.413 312.915 176.593 310.71 176.592L294.948 176.574L218.358 176.583L194.286 176.666C190.723 176.679 179.076 177.407 176.02 175.354C174.056 174.034 174.108 168.381 178.402 168.29C183.365 168.184 188.666 168.236 193.796 168.23L225.120 168.202L362.627 168.374L396.748 168.239C401.837 168.234 407.374 168.002 412.410 168.606C416.318 169.074 415.789 172.583 415.140 175.502C405.229 175.816 394.512 175.584 384.528 175.545L351.318 175.641C341.375 175.641 328.506 174.978 319.017 176.672Z" fill="#95BEE3"/>
<path d="M298.977 198.745C291.140 198.223 276.792 198.627 268.449 198.618L209.035 198.614C199.471 198.607 189.864 198.649 180.300 198.575C178.860 198.534 177.091 198.180 176.126 197.033C174.709 195.347 175.112 192.380 176.933 191.143C178.090 190.356 180.165 190.198 181.557 190.193C190.786 190.162 200.016 190.216 209.245 190.217L265.960 190.211C274.654 190.254 283.347 190.253 292.041 190.206C294.355 190.192 303.292 189.975 305.167 190.257C303.475 192.909 301.137 196.485 298.977 198.745Z" fill="#95BEE3"/>
</svg>
